# AST/ASF file generated using VICON BodyLanguage
# -----------------------------------------------
:version 1.10
:name VICON
:units
  mass 1.0
  length 0.45
  angle deg
:documentation
   .ast/.asf automatically generated from VICON data using
   VICON BodyBuilder and BodyLanguage model FoxedUp or BRILLIANT.MOD
:root
   order TX TY TZ RX RY RZ
   axis XYZ
   position 0 0 0  
   orientation 0 0 0 
:bonedata
  begin
     id 1 
     name lhipjoint
     direction 0.54267 -0.795011 0.271047 
     length 2.39899 
     axis 0 0 0  XYZ
  end
  begin
     id 2 
     name lfemur
     direction 0.34202 -0.939693 0  
     length 7.49701  
     axis 0 0 20  XYZ
    dof rx ry rz
    limits (-160.0 20.0)
           (-70.0 70.0)
           (-60.0 70.0)
  end
  begin
     id 3 
     name ltibia
     direction 0.34202 -0.939693 0   
     length 8.1668   
     axis 0 0 20   XYZ
    dof rx
    limits (-10.0 170.0)
  end
  begin
     id 4 
     name lfoot
     direction 0.0736283 -0.202292 0.976554   
     length 2.13544   
     axis -90 7.62852e-016 20   XYZ
    dof rx rz
    limits (-45.0 90.0)
           (-70.0 20.0)
  end
  begin
     id 5 
     name ltoes
     direction 1.53557e-011 -4.22024e-011 1   
     length 1.07411   
     axis -90 7.62852e-016 20   XYZ
    dof rx
    limits (-90.0 20.0)
  end
  begin
     id 6 
     name rhipjoint
     direction -0.538061 -0.797813 0.272002   
     length 2.39057  
     axis 0 0 0  XYZ 
  end
  begin
     id 7 
     name rfemur
     direction -0.34202 -0.939693 0   
     length 7.50152   
     axis 0 0 -20   XYZ
    dof rx ry rz
    limits (-160.0 20.0)
           (-70.0 70.0)
           (-70.0 60.0)
  end
  begin
     id 8 
     name rtibia
     direction -0.34202 -0.939693 0   
     length 8.05793   
     axis 0 0 -20   XYZ
    dof rx
    limits (-10.0 170.0)
 end
 begin
     id 9 
     name rfoot
     direction -0.0765195 -0.210236 0.974652   
     length 2.28698  
     axis -90 -7.62852e-016 -20   XYZ
    dof rx rz
    limits (-45.0 90.0)
           (-20.0 70.0)
  end
  begin
     id 10 
     name rtoes
     direction -1.53542e-011 -4.21847e-011 1   
     length 1.14762   
     axis -90 -7.62852e-016 -20   XYZ
    dof rx
    limits (-90.0 20.0)
  end
  begin
     id 11 
     name lowerback
     direction -0.0217239 0.996592 -0.0795765   
     length 2.08176   
     axis 0 0 0   XYZ
    dof rx ry rz
    limits (-20.0 45.0)
           (-30.0 30.0)
           (-30.0 30.0)
  end
  begin
     id 12 
     name upperback
     direction -0.00563773 0.999651 -0.0258155   
     length 2.08898   
     axis 0 0 0   XYZ
    dof rx ry rz
    limits (-20.0 45.0)
           (-30.0 30.0)
           (-30.0 30.0)
  end
  begin
     id 13 
     name thorax
     direction 0.0032706 0.999923 0.0119599   
     length 2.0968   
     axis 0 0 0   XYZ
    dof rx ry rz
    limits (-20.0 45.0)
           (-30.0 30.0)
           (-30.0 30.0)
  end
  begin
     id 14 
     name lowerneck
     direction -0.0285886 0.99568 0.0883427   
     length 1.81272   
     axis 0 0 0   XYZ
    dof rx ry rz
    limits (-20.0 45.0)
           (-30.0 30.0)
           (-30.0 30.0)
  end
  begin
     id 15 
     name upperneck
     direction 0.0807535 0.97985 -0.18268   
     length 1.82518   
     axis 0 0 0   XYZ
    dof rx ry rz
    limits (-20.0 45.0)
           (-30.0 30.0)
           (-30.0 30.0)
  end
  begin
     id 16
     name head
     direction 0.0236605 0.997053 -0.0729767  
     length 1.84443  
     axis 0 0 0   XYZ
    dof rx ry rz
    limits (-20.0 45.0)
           (-30.0 30.0)
           (-30.0 30.0)
  end
  begin
     id 17 
     name lclavicle
     direction 0.918986 0.39378 -0.0200683  
     length 3.27822  
     axis 0 0 0   XYZ
    dof ry rz
    limits (-20.0 10.0)
           (0.0 20.0)
  end
  begin
     id 18 
     name lhumerus
     direction 1 -4.4897e-011 2.09544e-027   
     length 5.5568   
     axis 180 -30 -90   XYZ
    dof rx ry rz
    limits (-60.0 90.0)
           (-90.0 90.0)
           (-90.0 90.0)
  end
  begin
     id 19
     name lradius
     direction 1 -4.48957e-011 -1.27696e-026   
     length 3.63979   
     axis 180 -30 -90   XYZ
    dof rx
    limits (-10.0 170.0)
  end
  begin
     id 20
     name lwrist
     direction 1 -4.49001e-011 -1.49001e-026   
     length 1.8199   
     axis 9.0955e-015 90 90   XYZ
    dof ry
    limits (-180.0 0.0)
 end
  begin
     id 21 
     name lhand
     direction 1 -4.48709e-011 -2.9758e-026   
     length 0.569419   
     axis 1.90115e-014 90 90   XYZ
    dof rx rz
    limits (-90.0 90.0)
           (-45.0 45.0)
  end
  begin
     id 22 
     name lfingers
     direction 1 -4.49175e-011 -5.96505e-026   
     length 0.45908   
     axis 3.80223e-014 90 90   XYZ
    dof rx
    limits (0.0 90.0)
  end
  begin
     id 23
     name lthumb
     direction 0.707107 -6.34864e-011 0.707107   
     length 0.65915   
     axis -90 45 -3.84942e-014   XYZ
    dof rx rz
    limits (-45.0 45.0)
           (-45.0 45.0)
  end
  begin
     id 24 
     name rclavicle
     direction -0.911913 0.396426 -0.106115   
     length 3.46301  
     axis 0 0 0   XYZ 
    dof ry rz
    limits (-10.0 20.0)
           (-20.0 0.0)
  end
  begin
     id 25 
     name rhumerus
     direction -1 -4.48965e-011 7.78516e-028  
     length 5.34339   
     axis 180 30 90   XYZ
    dof rx ry rz
    limits (-90.0 60.0)
           (-90.0 90.0)
           (-90.0 90.0)
  end
  begin
     id 26 
     name rradius
     direction -1 -4.48948e-011 -5.79823e-027   
     length 3.65101   
     axis 180 30 90   XYZ
    dof rx
    limits (-10.0 170.0)
  end
  begin
     id 27 
     name rwrist
     direction -1 -4.48995e-011 -1.48996e-026   
     length 1.8255   
     axis 9.0955e-015 -90 -90   XYZ
    dof ry
    limits (-180.0 0.0)
  end
  begin
     id 28
     name rhand
     direction -1 -4.48957e-011 -2.97937e-026   
     length 0.694249   
     axis 1.90115e-014 -90 -90   XYZ
    dof rx rz
    limits (-90.0 90.0)
           (-45.0 45.0)
  end
  begin
     id 29
     name rfingers
     direction -1 -4.4898e-011 -5.95943e-026   
     length 0.559721   
     axis 3.80223e-014 -90 -90   XYZ
    dof rx
    limits (0.0 90.0)
  end
  begin
     id 30
     name rthumb
     direction -0.707107 -6.34969e-011 0.707107   
     length 0.803651   
     axis -90 -45 3.84942e-014   XYZ
    dof rx rz
    limits (-45.0 45.0)
           (-45.0 45.0)
  end
:hierarchy
  begin
    root lhipjoint rhipjoint lowerback
    lhipjoint lfemur
    lfemur ltibia
    ltibia lfoot
    lfoot ltoes
    rhipjoint rfemur
    rfemur rtibia
    rtibia rfoot
    rfoot rtoes
    lowerback upperback
    upperback thorax
    thorax lowerneck lclavicle rclavicle
    lowerneck upperneck
    upperneck head
    lclavicle lhumerus
    lhumerus lradius
    lradius lwrist
    lwrist lhand lthumb
    lhand lfingers
    rclavicle rhumerus
    rhumerus rradius
    rradius rwrist
    rwrist rhand rthumb
    rhand rfingers
  end

#!OML:ASF H:\Terrain\Walking\May29\JustinRory\rory.ASF
:FULLY-SPECIFIED
:DEGREES
510
root 18.1199 10.0303 1.04639 -398.49 -73.2361 365.605
lowerback 32.0865 2.5536 3.79473
upperback 13.6114 3.3534 4.45414
thorax -2.03474 1.13092 1.7098
lowerneck 2.19547 -19.7971 -14.2042
upperneck 15.022 -30.285 16.6695
head 9.11726 -14.5809 4.31101
rclavicle -1.94809e-014 4.92986e-014
rhumerus 52.1609 -9.24529 -107.453
rradius 97.0439
rwrist -61.2179
rhand -15.712 28.2932
rfingers 7.12502
rthumb 10.478 -1.42571
lclavicle -1.94809e-014 4.92986e-014
lhumerus -40.7683 0.466654 78.2464
lradius 80.5847
lwrist 16.3001
lhand -19.4497 22.0256
lfingers 7.12502
lthumb 6.87103 -308.106
rfemur -58.3757 -12.7106 14.4885
rtibia 74.919
rfoot 17.75 2.41962
rtoes 15.2254
lfemur -59.9535 7.33823 -7.21358
ltibia 74.7737
lfoot 10.0326 -8.28438
ltoes -1.66106
511
root 18.1202 10.0258 1.06144 -395.227 -73.9227 362.016
lowerback 32.1071 2.20718 5.45093
upperback 13.642 3.36155 4.24623
thorax -1.86724 1.20888 0.536688
lowerneck 2.46742 -19.833 -13.7487
upperneck 14.9256 -30.4116 16.8994
head 9.02944 -14.6392 4.34661
rclavicle -8.94531e-015 -4.29375e-014
rhumerus 51.9112 -9.70838 -107.268
rradius 97.1593
rwrist -60.2198
rhand -16.1809 28.9033
rfingers 7.12502
rthumb 10.0257 -0.837944
lclavicle -8.94531e-015 -4.29375e-014
lhumerus -41.0438 0.23164 77.4056
lradius 80.9096
lwrist 16.5545
lhand -20.0283 22.1516
lfingers 7.12502
lthumb 6.31246 -307.962
rfemur -58.0096 -12.6607 15.9645
rtibia 74.6657
rfoot 17.5268 4.06208
rtoes 7.97818
lfemur -59.6281 7.44966 -5.84599
ltibia 74.1766
lfoot 9.32042 -7.54145
ltoes -3.01465
512
root 18.1309 10.0256 1.07719 -392.256 -74.5888 358.584
lowerback 32.3479 1.8186 6.86023
upperback 13.6798 3.25641 4.11824
thorax -1.80412 1.21029 -0.371759
lowerneck 2.5168 -19.7456 -13.838
upperneck 15.141 -30.4169 17.1461
head 9.15604 -14.6334 4.42572
rclavicle -2.18663e-014 -5.40694e-014
rhumerus 51.4831 -9.63466 -106.786
rradius 97.1344
rwrist -59.1362
rhand -16.1644 30.2137
rfingers 7.12502
rthumb 10.0416 0.473256
lclavicle -2.18663e-014 -5.40694e-014
lhumerus -41.3745 1.29471 76.6608
lradius 81.1285
lwrist 16.2285
lhand -20.0701 23.2459
lfingers 7.12502
lthumb 6.27215 -306.867
rfemur -57.3876 -12.2669 16.8203
rtibia 74.5077
rfoot 17.7409 1.9177
rtoes 17.8136
lfemur -59.0232 7.60013 -4.57336
ltibia 73.5579
lfoot 8.71227 -6.85458
ltoes -2.39643
513
root 18.1098 10.0073 1.09836 -392.425 -74.5913 358.526
lowerback 32.4655 1.72209 6.88579
upperback 13.771 3.12206 3.95646
thorax -1.74209 1.14772 -0.523954
lowerneck 2.40673 -19.7341 -14.1472
upperneck 15.3342 -30.4768 17.2967
head 9.3293 -14.6523 4.46692
rclavicle 9.93923e-016 -4.92986e-014
rhumerus 51.0689 -9.19419 -106.122
rradius 96.985
rwrist -57.0264
rhand -15.6867 30.4662
rfingers 7.12502
rthumb 10.5024 0.748583
lclavicle 9.93923e-016 -4.92986e-014
lhumerus -41.7226 2.201 76.2619
lradius 81.3411
lwrist 16.1034
lhand -19.8404 24.0307
lfingers 7.12502
lthumb 6.49394 -306.089
rfemur -57.0549 -12.6508 17.3846
rtibia 74.2566
rfoot 16.3327 7.52668
rtoes -7.57715
lfemur -58.7285 7.48977 -4.47958
ltibia 73.1276
lfoot 8.47273 -6.58469
ltoes -3.88184
514
root 18.1226 10.0274 1.09011 -393.826 -74.3383 360.008
lowerback 32.3054 1.82874 6.18526
upperback 13.8332 3.03046 3.71249
thorax -1.64813 1.08817 -0.366144
lowerneck 2.4036 -19.7481 -14.0633
upperneck 15.2754 -30.4889 17.3189
head 9.3022 -14.6581 4.464
rclavicle 6.95746e-015 -3.33958e-014
rhumerus 50.6687 -8.78435 -105.511
rradius 96.8155
rwrist -54.2924
rhand -15.0527 30.0968
rfingers 7.12502
rthumb 11.1139 0.411066
lclavicle 6.95746e-015 -3.33958e-014
lhumerus -42.1962 2.47913 75.7873
lradius 81.6536
lwrist 16.5377
lhand -20.3068 24.4644
lfingers 7.12502
lthumb 6.04358 -305.642
rfemur -57.0607 -12.3252 16.5987
rtibia 74.256
rfoot 17.2873 5.70267
rtoes 1.26045
lfemur -58.5017 7.32505 -4.95629
ltibia 72.4216
lfoot 8.40846 -6.20256
ltoes -5.92109
515
root 18.1027 10.0259 1.08396 -395.611 -74.142 362.076
lowerback 32.0148 2.06239 5.09115
upperback 13.7719 3.00924 3.50307
thorax -1.66792 1.04738 0.0318545
lowerneck 2.72737 -19.6536 -13.9936
upperneck 15.0421 -30.3093 17.2452
head 9.1105 -14.6127 4.51665
rclavicle -4.96962e-015 7.95139e-016
rhumerus 50.0392 -8.24935 -104.686
rradius 96.6269
rwrist -51.871
rhand -14.9897 29.2851
rfingers 7.12502
rthumb 11.1747 -0.397366
lclavicle -4.96962e-015 7.95139e-016
lhumerus -42.9711 3.14338 75.2076
lradius 82.077
lwrist 16.7568
lhand -21.5531 24.5387
lfingers 7.12502
lthumb 4.84027 -305.537
rfemur -57.3141 -12.0494 16.1657
rtibia 74.2149
rfoot 17.0713 7.01473
rtoes -5.86542
lfemur -58.5255 7.38601 -5.50401
ltibia 71.8709
lfoot 8.86946 -6.37779
ltoes -8.30514
516
root 18.1127 10.0345 1.08578 -395.202 -74.1372 361.683
lowerback 32.0726 2.05797 4.82987
upperback 13.6129 2.96149 3.59627
thorax -1.90298 1.0074 0.293799
lowerneck 3.21931 -19.5149 -14.4826
upperneck 14.851 -30.1266 17.2968
head 9.01559 -14.5893 4.67529
rclavicle 1.41137e-014 -1.59028e-015
rhumerus 49.3213 -7.67093 -103.408
rradius 96.2935
rwrist -49.6272
rhand -14.7227 28.02
rfingers 7.12502
rthumb 11.4322 -1.6483
lclavicle 1.41137e-014 -1.59028e-015
lhumerus -43.8166 3.87298 74.9747
lradius 82.436
lwrist 16.9199
lhand -22.5346 24.6526
lfingers 7.12502
lthumb 3.89255 -305.403
rfemur -57.4033 -11.8636 16.0548
rtibia 74.2851
rfoot 17.9321 5.02527
rtoes 2.32008
lfemur -58.2367 7.28412 -5.38803
ltibia 71.1876
lfoot 9.43238 -6.86989
ltoes -10.5896
517
root 18.106 10.0297 1.09856 -395.023 -73.9435 361.536
lowerback 32.2804 2.09553 4.4285
upperback 13.4326 2.94 3.73389
thorax -2.23803 0.972445 0.67401
lowerneck 3.56507 -19.4366 -15.1159
upperneck 14.7697 -30.0807 17.4729
head 9.05206 -14.6126 4.83635
rclavicle 5.36719e-015 1.43125e-014
rhumerus 48.6518 -7.01974 -101.858
rradius 95.849
rwrist -46.683
rhand -14.8045 26.9112
rfingers 7.12502
rthumb 11.3533 -2.76146
lclavicle 5.36719e-015 1.43125e-014
lhumerus -44.5309 3.85163 74.9638
lradius 82.6771
lwrist 17.6472
lhand -21.2632 25.0054
lfingers 7.12502
lthumb 5.12023 -305.076
rfemur -57.3788 -11.976 15.9342
rtibia 74.3161
rfoot 17.6807 5.73667
rtoes -1.38138
lfemur -58.0735 7.01596 -5.41316
ltibia 70.6911
lfoot 9.80549 -6.62435
ltoes -9.48635
518
root 18.102 10.0461 1.0893 -397.448 -73.3653 364.394
lowerback 32.1114 2.3937 2.91492
upperback 13.2491 2.91146 3.59221
thorax -2.46998 0.91668 1.3882
lowerneck 3.85205 -19.3413 -15.5507
upperneck 14.7763 -29.9893 17.4915
head 9.06106 -14.6086 4.93395
rclavicle -2.76311e-014 1.59028e-014
rhumerus 47.877 -6.09235 -100.46
rradius 95.423
rwrist -43.0854
rhand -15.3167 25.8455
rfingers 7.12502
rthumb 10.8593 -3.85378
lclavicle -2.76311e-014 1.59028e-014
lhumerus -45.2363 3.84134 74.7598
lradius 82.8195
lwrist 18.1639
lhand -19.7408 24.6887
lfingers 7.12502
lthumb 6.59005 -305.434
rfemur -57.8199 -11.8546 14.7614
rtibia 74.4157
rfoot 18.1082 4.63705
rtoes 3.11166
lfemur -58.0851 6.81992 -6.39953
ltibia 70.1205
lfoot 10.0399 -6.08471
ltoes -10.3337
519
root 18.1095 10.0554 1.09407 -397.809 -73.2352 364.783
lowerback 32.192 2.31918 2.57336
upperback 13.1565 2.72336 3.42238
thorax -2.62138 0.817578 1.45353
lowerneck 4.06808 -19.1812 -15.8469
upperneck 14.8075 -29.8101 17.5356
head 9.05708 -14.5538 5.03633
rclavicle 5.74488e-014 6.12257e-014
rhumerus 47.1791 -5.20882 -99.4534
rradius 95.0328
rwrist -40.1426
rhand -14.6446 25.3503
rfingers 7.12502
rthumb 11.5075 -4.31381
lclavicle 5.74488e-014 6.12257e-014
lhumerus -45.8982 4.67518 74.2249
lradius 82.9547
lwrist 18.1693
lhand -20.1054 24.0855
lfingers 7.12502
lthumb 6.23808 -306.026
rfemur -57.8515 -11.9289 14.5261
rtibia 74.4292
rfoot 18.3274 4.11708
rtoes 5.42583
lfemur -57.97 6.656 -6.48812
ltibia 69.6974
lfoot 10.3934 -5.41906
ltoes -9.30484
520
root 18.1236 10.0495 1.12057 -396.085 -73.5617 362.629
lowerback 32.5386 1.99971 3.62197
upperback 13.3169 2.58524 3.2313
thorax -2.51321 0.781348 0.684007
lowerneck 3.77807 -19.2416 -15.5543
upperneck 14.8129 -29.9127 17.7396
head 9.11781 -14.5626 5.01454
rclavicle -1.80894e-014 -2.94201e-014
rhumerus 47.0092 -4.78187 -98.6784
rradius 94.6319
rwrist -37.5963
rhand -13.6276 24.9743
rfingers 7.12502
rthumb 12.4882 -4.63253
lclavicle -1.80894e-014 -2.94201e-014
lhumerus -46.0641 5.15383 73.5209
lradius 83.1926
lwrist 18.1366
lhand -21.3 24.124
lfingers 7.12502
lthumb 5.08467 -305.957
rfemur -57.3872 -12.053 15.1328
rtibia 74.3956
rfoot 18.3086 4.09757
rtoes 5.46112
lfemur -57.5988 6.39289 -5.62658
ltibia 69.4142
lfoot 11.0485 -4.65314
ltoes -6.00662
521
root 18.1277 10.0488 1.13634 -395.016 -73.6617 361.571
lowerback 32.4598 1.88809 4.0011
upperback 13.4241 2.52452 3.06399
thorax -2.32454 0.771341 0.30414
lowerneck 3.37877 -19.3625 -15.0087
upperneck 14.8055 -30.0172 17.6793
head 9.10544 -14.565 4.8772
rclavicle -2.26615e-014 3.65764e-014
rhumerus 46.8803 -4.22054 -97.6512
rradius 94.134
rwrist -34.7131
rhand -13.0298 24.1816
rfingers 7.12502
rthumb 13.0645 -5.38928
lclavicle -2.26615e-014 3.65764e-014
lhumerus -46.1466 5.42936 73.0535
lradius 83.3569
lwrist 17.8497
lhand -23.1176 24.488
lfingers 7.12502
lthumb 3.32957 -305.558
rfemur -57.4149 -12.0719 15.3826
rtibia 74.3999
rfoot 18.3069 4.0355
rtoes 5.48805
lfemur -57.5256 6.21962 -5.24544
ltibia 69.1603
lfoot 11.8094 -4.82643
ltoes -9.7431
522
root 18.1222 10.051 1.14078 -394.768 -73.6806 361.524
lowerback 32.3831 1.92098 3.54901
upperback 13.2875 2.45396 3.08575
thorax -2.47869 0.720814 0.608622
lowerneck 3.60172 -19.2895 -15.0297
upperneck 14.668 -29.8372 17.4277
head 8.94607 -14.5162 4.87021
rclavicle -2.76311e-014 -3.18055e-014
rhumerus 46.2836 -3.20562 -96.2188
rradius 93.5605
rwrist -32.0668
rhand -11.7982 23.8027
rfingers 7.12502
rthumb 14.2515 -5.68828
lclavicle -2.76311e-014 -3.18055e-014
lhumerus -46.7041 5.99761 72.835
lradius 83.3959
lwrist 17.7444
lhand -23.4741 24.5839
lfingers 7.12502
lthumb 2.98523 -305.457
rfemur -57.6693 -12.0227 15.4048
rtibia 74.4595
rfoot 18.2994 3.8934
rtoes 5.8316
lfemur -57.4929 6.29424 -5.2268
ltibia 68.91
lfoot 12.182 -5.42081
ltoes -16.0064
